# xmcd
#
# Track frame offsets: 
#        150
#        11782
#        20870
#        33042
#        51342
#        61897
#        72762
#        85367
#        96817
#        106480
#        125150
#        140147
#        151502
#        161945
#        175560
#        188300
#        201222
#        212360
#        223680
#        237125
#        245892
#        257975
#        268980
#        284480
#        298365
#        316237
#        330750
#
# Disc length: 4588 seconds
#
# Revision: 0
# Processed by: cddbd v1.5.2PL0 Copyright (c) Steve Scherf et al.
# Submitted via: ExactAudioCopy v0.95b4
#
DISCID=9811ea1b
DTITLE=Various Artist - EMI Music Publishing Country Hits [CD2: 1968-1974)
DYEAR=1994
DGENRE=Country
TTITLE0=Jerry Lee Lewis - What's Made Milwaukee Famous (Has Made A Loo
TTITLE0=ser Out Of Me)
TTITLE1=Bob Luman - Everyday I Have To Cry Some
TTITLE2=Elvis Presley - In The Ghetto
TTITLE3=Roger Miller - Me And Bobby McGee
TTITLE4=Porter Wagoner and Dolly Parton - Put It Off Until Tomorrow
TTITLE5=Glen Campbell - Try A Little Kindness
TTITLE6=Elvis Presley - Don't Cry Daddy
TTITLE7=Sammi Smith - Help Me Make It Through The Night
TTITLE8=Anne Murray - Snowbird
TTITLE9=Johnny Cash - Sunday Mornin' Come To Town
TTITLE10=Elvis Presley - Suspicous Minds
TTITLE11=Glen Campbell - Dream Baby (How Long Must I Dream)
TTITLE12=Hank Williams Jr. - Ain't That A Shame
TTITLE13=Mac Davis - Baby Don't Get Hooked On Me
TTITLE14=Elvis Presley - Burning Love
TTITLE15=Tanya Tucker - Delta Dawn
TTITLE16=Donna Fargo - Happiest Girl In The Whole U.S.A.
TTITLE17=George Jones - A Picture Of Me Without You
TTITLE18=Waylon Jennings - Sweet Dream Woman
TTITLE19=Arthur Smith and Don Reno - Dueling Banjos (Feudin' Banjos)
TTITLE20=Charlie Rich - The Most Beautiful Girl
TTITLE21=Joe Stampley - Soul Song
TTITLE22=Kris Kristofferson - Why Me?
TTITLE23=George Jones - The Grand Tour
TTITLE24=Billy Swan - I Can Help
TTITLE25=Olivia Newton-John - If You Love Me (Let Me Know)
TTITLE26=Olivia Newton-John - Let Me Be There
EXTD=
EXTT0=
EXTT1=
EXTT2=
EXTT3=
EXTT4=
EXTT5=
EXTT6=
EXTT7=
EXTT8=
EXTT9=
EXTT10=
EXTT11=
EXTT12=
EXTT13=
EXTT14=
EXTT15=
EXTT16=
EXTT17=
EXTT18=
EXTT19=
EXTT20=
EXTT21=
EXTT22=
EXTT23=
EXTT24=
EXTT25=
EXTT26=
PLAYORDER=
